<svg width="16" height="16" viewBox="0 0 16 16" fill="none" xmlns="http://www.w3.org/2000/svg">
<path d="M3.63288 1.982C3.52449 1.87337 3.39575 1.78718 3.25402 1.72834C3.1123 1.6695 2.96036 1.63918 2.80691 1.6391C2.65345 1.63901 2.50149 1.66918 2.3597 1.72787C2.21791 1.78655 2.08908 1.87261 1.98057 1.98112C1.87206 2.08963 1.786 2.21846 1.72732 2.36025C1.66863 2.50204 1.63846 2.654 1.63855 2.80746C1.63863 2.96091 1.66895 3.11284 1.72779 3.25457C1.78663 3.3963 1.87282 3.52504 1.98145 3.63343L10.3734 12.0254H5.40353C5.09382 12.0254 4.7968 12.1484 4.57781 12.3674C4.35881 12.5864 4.23578 12.8835 4.23578 13.1932C4.23578 13.5029 4.35881 13.7999 4.57781 14.0189C4.7968 14.2379 5.09382 14.3609 5.40353 14.3609H13.1926C13.5023 14.3609 13.7993 14.2379 14.0183 14.0189C14.2373 13.7999 14.3604 13.5029 14.3604 13.1932V5.40407C14.3604 5.09437 14.2373 4.79735 14.0183 4.57836C13.7993 4.35936 13.5023 4.23633 13.1926 4.23633C12.8829 4.23633 12.5859 4.35936 12.3669 4.57836C12.1479 4.79735 12.0249 5.09437 12.0249 5.40407V10.374L3.63288 1.982Z" fill="#2B2B30"/>
</svg>
