<svg width="17" height="16" viewBox="0 0 17 16" fill="none" xmlns="http://www.w3.org/2000/svg">
<g clip-path="url(#clip0_83_781)">
<path d="M12.8958 7.1875C13.2409 7.1875 13.5208 6.90768 13.5208 6.5625C13.5208 6.21732 13.2409 5.9375 12.8958 5.9375C12.5506 5.9375 12.2708 6.21732 12.2708 6.5625C12.2708 6.90768 12.5506 7.1875 12.8958 7.1875Z" fill="#555559"/>
<path d="M14.3333 1.25H13.5208V0.625C13.5208 0.279813 13.2409 0 12.8958 0C12.5506 0 12.2708 0.279813 12.2708 0.625V1.25H9.427V0.625C9.427 0.279813 9.14719 0 8.802 0C8.45681 0 8.177 0.279813 8.177 0.625V1.25H5.3645V0.625C5.3645 0.279813 5.08469 0 4.7395 0C4.39431 0 4.1145 0.279813 4.1145 0.625V1.25H3.33325C1.95475 1.25 0.833252 2.3715 0.833252 3.75V13.5C0.833252 14.8785 1.95475 16 3.33325 16H8.1145C8.45969 16 8.7395 15.7202 8.7395 15.375C8.7395 15.0298 8.45969 14.75 8.1145 14.75H3.33325C2.644 14.75 2.08325 14.1892 2.08325 13.5V3.75C2.08325 3.06075 2.644 2.5 3.33325 2.5H4.1145V3.125C4.1145 3.47019 4.39431 3.75 4.7395 3.75C5.08469 3.75 5.3645 3.47019 5.3645 3.125V2.5H8.177V3.125C8.177 3.47019 8.45681 3.75 8.802 3.75C9.14719 3.75 9.427 3.47019 9.427 3.125V2.5H12.2708V3.125C12.2708 3.47019 12.5506 3.75 12.8958 3.75C13.2409 3.75 13.5208 3.47019 13.5208 3.125V2.5H14.3333C15.0225 2.5 15.5833 3.06075 15.5833 3.75V7.3125C15.5833 7.65769 15.8631 7.9375 16.2083 7.9375C16.5534 7.9375 16.8333 7.65769 16.8333 7.3125V3.75C16.8333 2.3715 15.7118 1.25 14.3333 1.25Z" fill="#555559"/>
<path d="M13.052 8.4375C10.967 8.4375 9.27075 10.1337 9.27075 12.2188C9.27075 14.3038 10.967 16 13.052 16C15.137 16 16.8333 14.3038 16.8333 12.2188C16.8333 10.1337 15.137 8.4375 13.052 8.4375ZM13.052 14.75C11.6563 14.75 10.5208 13.6145 10.5208 12.2188C10.5208 10.823 11.6563 9.6875 13.052 9.6875C14.4477 9.6875 15.5833 10.823 15.5833 12.2188C15.5833 13.6145 14.4477 14.75 13.052 14.75Z" fill="#555559"/>
<path d="M13.9583 11.5938H13.677V10.9375C13.677 10.5923 13.3972 10.3125 13.052 10.3125C12.7068 10.3125 12.427 10.5923 12.427 10.9375V12.2188C12.427 12.5639 12.7068 12.8438 13.052 12.8438H13.9583C14.3034 12.8438 14.5833 12.5639 14.5833 12.2188C14.5833 11.8736 14.3034 11.5938 13.9583 11.5938Z" fill="#555559"/>
<path d="M10.177 7.1875C10.5222 7.1875 10.802 6.90768 10.802 6.5625C10.802 6.21732 10.5222 5.9375 10.177 5.9375C9.83182 5.9375 9.552 6.21732 9.552 6.5625C9.552 6.90768 9.83182 7.1875 10.177 7.1875Z" fill="#555559"/>
<path d="M7.45825 9.90625C7.80343 9.90625 8.08325 9.62643 8.08325 9.28125C8.08325 8.93607 7.80343 8.65625 7.45825 8.65625C7.11307 8.65625 6.83325 8.93607 6.83325 9.28125C6.83325 9.62643 7.11307 9.90625 7.45825 9.90625Z" fill="#555559"/>
<path d="M4.7395 7.1875C5.08468 7.1875 5.3645 6.90768 5.3645 6.5625C5.3645 6.21732 5.08468 5.9375 4.7395 5.9375C4.39432 5.9375 4.1145 6.21732 4.1145 6.5625C4.1145 6.90768 4.39432 7.1875 4.7395 7.1875Z" fill="#555559"/>
<path d="M4.7395 9.90625C5.08468 9.90625 5.3645 9.62643 5.3645 9.28125C5.3645 8.93607 5.08468 8.65625 4.7395 8.65625C4.39432 8.65625 4.1145 8.93607 4.1145 9.28125C4.1145 9.62643 4.39432 9.90625 4.7395 9.90625Z" fill="#555559"/>
<path d="M4.7395 12.625C5.08468 12.625 5.3645 12.3452 5.3645 12C5.3645 11.6548 5.08468 11.375 4.7395 11.375C4.39432 11.375 4.1145 11.6548 4.1145 12C4.1145 12.3452 4.39432 12.625 4.7395 12.625Z" fill="#555559"/>
<path d="M7.45825 12.625C7.80343 12.625 8.08325 12.3452 8.08325 12C8.08325 11.6548 7.80343 11.375 7.45825 11.375C7.11307 11.375 6.83325 11.6548 6.83325 12C6.83325 12.3452 7.11307 12.625 7.45825 12.625Z" fill="#555559"/>
<path d="M7.45825 7.1875C7.80343 7.1875 8.08325 6.90768 8.08325 6.5625C8.08325 6.21732 7.80343 5.9375 7.45825 5.9375C7.11307 5.9375 6.83325 6.21732 6.83325 6.5625C6.83325 6.90768 7.11307 7.1875 7.45825 7.1875Z" fill="#555559"/>
</g>
<defs>
<clipPath id="clip0_83_781">
<rect width="16" height="16" fill="white" transform="translate(0.833252)"/>
</clipPath>
</defs>
</svg>
