<svg width="17" height="16" viewBox="0 0 17 16" fill="none" xmlns="http://www.w3.org/2000/svg">
<g clip-path="url(#clip0_142_402)">
<path d="M9.83716 9.80304C9.43909 10.0684 8.97672 10.2087 8.5 10.2087C8.02331 10.2087 7.56094 10.0684 7.16288 9.80304L0.606531 5.43201C0.570156 5.40776 0.534719 5.38248 0.5 5.35648V12.5189C0.5 13.3401 1.16641 13.9918 1.97291 13.9918H15.0271C15.8482 13.9918 16.5 13.3254 16.5 12.5189V5.35645C16.4652 5.38251 16.4297 5.40785 16.3932 5.43213L9.83716 9.80304Z" fill="#2B2B30"/>
<path d="M1.12656 4.6518L7.68291 9.02286C7.93109 9.18833 8.21553 9.27105 8.49997 9.27105C8.78444 9.27105 9.06891 9.1883 9.31709 9.02286L15.8734 4.6518C16.2658 4.39039 16.5 3.95289 16.5 3.48071C16.5 2.6688 15.8395 2.0083 15.0276 2.0083H1.97241C1.16053 2.00833 0.5 2.66883 0.5 3.48149C0.5 3.95289 0.73425 4.39039 1.12656 4.6518Z" fill="#2B2B30"/>
</g>
<defs>
<clipPath id="clip0_142_402">
<rect width="16" height="16" fill="white" transform="translate(0.5)"/>
</clipPath>
</defs>
</svg>
