<svg width="1218" height="238" viewBox="0 0 1218 238" fill="none" xmlns="http://www.w3.org/2000/svg">
<path d="M1120.07 234.909H1076.21V3.09106H1120.07V102.927H1131.5L1173.52 3.09106H1218L1170.43 119L1217.38 234.909H1172.9L1131.5 134.764H1120.07V234.909Z" fill="white"/>
<path d="M947.979 234.909V3.09106H991.845V201.218H1067.22V234.909H947.979Z" fill="white"/>
<path d="M840.605 234.909H795.811C804.461 186.691 823.614 51.0002 832.573 3.09106H904.242L941.004 234.909H896.211L888.178 167.218H848.637L840.605 234.909ZM850.799 135.382H886.016L872.732 36.782H864.083L850.799 135.382Z" fill="white"/>
<path d="M713.471 36.782H662.499V3.09106H808.31V36.782H757.338V234.909H713.471V36.782Z" fill="white"/>
<path d="M523.607 0C570.563 0 594.968 19.4727 594.968 68C594.968 71.4 594.659 74.8 594.35 78.2H550.483C550.483 76.3455 550.792 71.4 550.792 69.2364C550.792 50.6909 545.232 33.6909 523.607 33.6909C506.926 33.6909 495.187 44.8182 495.187 61.8182C495.187 111.582 596.513 93.0364 596.513 170.618C596.513 217.291 568.401 238 523.607 238C476.651 238 452.555 218.527 452.555 169.691C452.555 166.291 452.555 163.2 452.864 159.8H496.731V168.764C496.731 187.309 501.983 204.309 523.607 204.309C541.525 204.309 552.337 192.255 552.337 174.327C552.337 124.564 451.011 144.964 451.011 67.3818C451.011 20.7091 479.123 0 523.607 0Z" fill="white"/>
<path d="M443.377 37.4002L429.476 62.1274H408.778L422.679 37.7093H408.778V3.09106H443.377V37.4002Z" fill="white"/>
<path d="M306.455 36.782H255.483V3.09106H401.294V36.782H350.322V234.909H306.455V36.782Z" fill="white"/>
<path d="M247.47 234.909H128.227V3.09106H247.47V36.782H172.093V103.237H239.747V135.073H172.093V201.218H247.47V234.909Z" fill="white"/>
<path d="M0 234.909V3.09106H43.8669V201.218H119.244V234.909H0Z" fill="white"/>
</svg>
