<svg width="16" height="14" viewBox="0 0 16 14" fill="none" xmlns="http://www.w3.org/2000/svg">
<path d="M10.135 13.2836C10.1368 13.2818 10.1386 13.28 10.1404 13.2782L15.7414 7.68458C15.7856 7.64013 15.8248 7.59102 15.8585 7.53813L15.9464 7.37707L15.983 7.26725V7.1867C16.0057 7.06329 16.0057 6.93675 15.983 6.8133V6.7401V6.65224L15.9171 6.52776C15.8794 6.4584 15.8326 6.39436 15.778 6.33739L10.1404 0.721801C9.76735 0.345761 9.16006 0.343324 8.78402 0.716379C8.7822 0.718163 8.78042 0.719982 8.7786 0.721801C8.41694 1.10086 8.41694 1.6972 8.7786 2.0763L12.1172 5.42222C12.2588 5.56657 12.2565 5.79837 12.1121 5.9399C12.0449 6.00576 11.955 6.04324 11.861 6.04454H0.959208C0.429483 6.04451 4.19617e-05 6.47388 7.62939e-06 7.0036C-2.67029e-05 7.53333 0.429346 7.96274 0.95907 7.96281H0.959208H11.861C12.0631 7.96565 12.2247 8.13183 12.2219 8.33397C12.2205 8.42801 12.1831 8.51796 12.1172 8.58512L8.7786 11.9164C8.41227 12.2965 8.41227 12.8982 8.7786 13.2782C9.15166 13.6543 9.75894 13.6567 10.135 13.2836Z" fill="#2B2B30"/>
</svg>
