<svg width="69" height="54" viewBox="0 0 69 54" fill="none" xmlns="http://www.w3.org/2000/svg">
<path d="M29.9099 25.9662C29.9099 25.6659 29.8423 25.3695 29.7121 25.0989L18.6483 2.10927C18.3151 1.41684 17.6146 0.976562 16.8462 0.976562H4.07285C2.60314 0.976562 1.63541 2.50865 2.26682 3.8358L11.0962 22.3941C11.7276 23.7212 10.7599 25.2533 9.2902 25.2533H2.90649C1.80193 25.2533 0.906494 26.1487 0.906494 27.2533V52.0001C0.906494 53.1047 1.80193 54.0001 2.90649 54.0001H27.9099C29.0145 54.0001 29.9099 53.1047 29.9099 52.0001V25.9662ZM39.92 52.0001C39.92 53.1047 40.8154 54.0001 41.92 54.0001H66.6667C67.7713 54.0001 68.6667 53.1047 68.6667 52.0001V25.9572C68.6667 25.6627 68.6017 25.3718 68.4762 25.1053L57.6572 2.12467C57.3273 1.42385 56.6223 0.976562 55.8477 0.976562H43.0863C41.6166 0.976562 40.6489 2.50865 41.2803 3.8358L50.1097 22.3941C50.7411 23.7212 49.7734 25.2533 48.3037 25.2533H41.92C40.8154 25.2533 39.92 26.1487 39.92 27.2533V52.0001Z" fill="#2B2B30"/>
</svg>
