<svg width="25" height="24" viewBox="0 0 25 24" fill="none" xmlns="http://www.w3.org/2000/svg">
<path d="M12.4998 24C14.7277 24 16.8642 23.115 18.4395 21.5397C20.0148 19.9644 20.8998 17.8278 20.8998 15.6V8.39999C20.8998 6.17218 20.0148 4.0356 18.4395 2.4603C16.8642 0.884997 14.7277 0 12.4998 0C10.272 0 8.13546 0.884997 6.56015 2.4603C4.98485 4.0356 4.09985 6.17218 4.09985 8.39999V15.6C4.09985 17.8278 4.98485 19.9644 6.56015 21.5397C8.13546 23.115 10.272 24 12.4998 24ZM5.29985 8.39999C5.29985 6.49044 6.05842 4.65909 7.40868 3.30883C8.75894 1.95857 10.5903 1.2 12.4998 1.2C14.4094 1.2 16.2408 1.95857 17.591 3.30883C18.9413 4.65909 19.6998 6.49044 19.6998 8.39999V15.6C19.6998 17.5095 18.9413 19.3409 17.591 20.6912C16.2408 22.0414 14.4094 22.8 12.4998 22.8C10.5903 22.8 8.75894 22.0414 7.40868 20.6912C6.05842 19.3409 5.29985 17.5095 5.29985 15.6V8.39999Z" fill="#949497"/>
<path d="M11.8999 11.7H11.9539L12.0739 11.826C12.1297 11.8822 12.196 11.9268 12.2691 11.9573C12.3422 11.9878 12.4207 12.0034 12.4999 12.0034C12.5791 12.0034 12.6575 11.9878 12.7306 11.9573C12.8037 11.9268 12.8701 11.8822 12.9259 11.826L13.0459 11.7H13.0999V11.646L16.5259 8.22597L15.6739 7.37397L13.0999 9.95397V3.59998H11.8999V9.95397L9.32588 7.37397L8.47388 8.22597L11.8999 11.646V11.7Z" fill="#949497"/>
</svg>
