<svg width="120" height="120" viewBox="0 0 120 120" fill="none" xmlns="http://www.w3.org/2000/svg">
<path d="M118.925 49.219C118.539 50.4075 117.436 51.1631 116.251 51.1631C115.963 51.1631 115.67 51.1186 115.381 51.0246L105.153 47.7017C103.676 47.2216 102.868 45.6352 103.348 44.1577C103.827 42.6804 105.414 41.8718 106.892 42.3518L117.119 45.6748C118.596 46.1552 119.405 47.7417 118.925 49.219ZM89.9179 20.8974C90.115 20.9393 90.3117 20.9595 90.5055 20.9595C91.8051 20.9595 92.9725 20.0534 93.2538 18.7313L95.49 8.21251C95.8129 6.69329 94.8431 5.19962 93.3236 4.87665C91.8046 4.55368 90.311 5.52353 89.9878 7.04298L87.7516 17.5617C87.4289 19.0809 88.3985 20.5744 89.9179 20.8974ZM105.536 30.6354L114.774 25.302C116.119 24.5252 116.58 22.8052 115.804 21.4599C115.027 20.1143 113.307 19.6535 111.962 20.4302L102.723 25.7637C101.378 26.5404 100.917 28.2605 101.694 29.6058C102.215 30.5081 103.16 31.0125 104.132 31.0125C104.609 31.0125 105.093 30.8911 105.536 30.6354ZM99.6736 65.2151C100.799 67.1649 101.097 69.4425 100.511 71.6278C99.9257 73.8131 98.5293 75.6368 96.5796 76.7625C95.2516 77.5292 93.8001 77.8934 92.3669 77.8934C90.0527 77.8934 87.7893 76.9404 86.1696 75.2013C73.7878 76.3861 61.4353 79.8246 49.3781 85.4386L64.6532 100.714C65.7518 101.812 65.7518 103.593 64.6532 104.691L54.9836 114.361C54.4563 114.889 53.7407 115.185 52.995 115.185C52.2492 115.185 51.5336 114.889 51.0063 114.361L31.8422 95.197C29.294 96.4631 26.5682 97.0692 23.8729 97.0692C17.6463 97.0692 11.5828 93.8405 8.25207 88.0716L3.33793 79.56C-1.62519 70.9634 1.33075 59.9316 9.92715 54.9682L23.0121 47.4136C35.3053 39.3324 45.5355 29.6159 53.4417 18.5177C52.3136 14.8376 53.8235 10.7248 57.2957 8.72017C61.3329 6.39001 66.5128 7.77798 68.8432 11.8144L77.8364 27.3912L78.5751 26.9646C81.5367 25.2549 84.9968 24.8027 88.3183 25.6931C91.6399 26.5831 94.4109 28.7044 96.1207 31.6659C97.8304 34.6275 98.2821 38.0878 97.3919 41.4092C96.502 44.7307 94.3807 47.5017 91.4191 49.2115L90.6806 49.6378L99.6736 65.2151ZM80.6486 32.2629L87.8679 44.7668L88.6064 44.3405C90.2667 43.3819 91.4573 41.824 91.9584 39.9539C92.4595 38.0838 92.2075 36.1395 91.2489 34.4789C90.2904 32.8186 88.7325 31.628 86.8624 31.1269C84.9923 30.626 83.0479 30.878 81.3874 31.8363L80.6486 32.2629ZM28.2379 50.6789L45.7139 80.9482C57.8632 75.1315 70.3272 71.4256 82.8583 69.9035L56.3751 24.0333C48.7915 34.1241 39.3504 43.0655 28.2379 50.6789ZM30.0311 89.7898L40.7503 83.6011L23.4588 53.6513L12.7394 59.8399C6.82895 63.2527 4.79668 70.8373 8.20895 76.748L13.1231 85.2595C16.5356 91.1698 24.1207 93.2023 30.0311 89.7898ZM58.687 102.703L44.1295 88.1452L36.9122 92.3121L52.995 108.395L58.687 102.703ZM94.8023 68.0276L63.9714 14.6271C63.1917 13.2764 61.4585 12.8119 60.1078 13.5919C58.7571 14.3717 58.2928 16.1051 59.0725 17.4558L89.9032 70.856C90.6829 72.2067 92.4164 72.671 93.7671 71.8913C94.4158 71.5167 94.8813 70.9062 95.0782 70.1721C95.2748 69.4381 95.1768 68.6763 94.8023 68.0276Z" fill="#2B2B30"/>
</svg>
