<?xml version="1.0"?><svg xmlns="http://www.w3.org/2000/svg"  width="396"
      height="135.6163818130869"
      viewBox="0 0 300 102.7396831917325"
    
         fill="#000">    <path
          d="M1.5775 12.780999999999999 l-0.66845 -0.82888 l10.508 0 l0 4.2246 l-7.246 0 l1.0963 0.82888 l0 6.8449 l4.3048 0 l0 4.2246 l-5.4011 0 l1.0963 0.82888 l0 11.043 l-3.6898 0 l0 -27.166 z M12.032080748663102 12.032 l4.3583 0 l0 23.77 l6.1497 0 l0 4.2246 l-9.8396 0 l0 -0.026738 l0 -4.1979 l0 -22.968 z M23.155036363636363 12.861 l-0.66845 -0.82888 l10.508 0 l0 4.2246 l-7.246 0 l1.0963 0.82888 l0 6.8182 l4.3316 0 l0 4.2513 l-5.4278 0 l1.0963 0.80214 l0 6.8449 l6.1497 0 l0 4.2246 l-9.8396 0 l0 -4.2246 l0 -7.6471 l0 -4.2513 l0 -11.043 z M42.433144919786095 11.952000000000002 l3.7701 0 l2.3262 18.93 l2.3262 -18.93 l3.6898 0 l-3.4225 27.995 l-5.1872 0 l-1.631 -13.235 l-1.6043 13.235 l-5.1872 0 l-3.3422 -27.193 l-0.66845 -0.80214 l4.2781 0 l2.3262 18.93 z M55.72192673796791 12.004999999999999 l5.2406 0 l3.4225 15.267 l0 -15.241 l3.6631 0 l0 27.968 l-4.5722 0 l-3.3957 -15.187 l0 15.214 l-3.6898 0 l0 -27.193 z M68.90374021390375 12.004999999999999 l4.2781 0 l2.9679 11.872 l2.9412 -11.872 l3.7968 0 l-4.8663 19.465 l-0.053476 0.24064 l0 8.3155 l-3.6631 0 l0 -8.3422 l-0.053476 -0.2139 l-4.6524 -18.636 z"
        ></path></svg>