<svg width="120" height="114" viewBox="0 0 120 114" fill="none" xmlns="http://www.w3.org/2000/svg">
<path d="M108.261 0.913116H11.7391C5.26617 0.913116 0 6.17929 0 12.6523V101.348C0 107.821 5.26617 113.087 11.7391 113.087H108.261C114.734 113.087 120 107.821 120 101.348V12.6523C120 6.17929 114.734 0.913116 108.261 0.913116ZM31.3043 105.261H11.7391C9.58148 105.261 7.82602 103.505 7.82602 101.348V40.0434H31.3043V105.261ZM112.174 101.348C112.174 103.505 110.419 105.261 108.261 105.261H39.1305V40.0434H112.174V101.348ZM112.174 32.2174H7.82602V12.6523C7.82602 10.4946 9.58148 8.73913 11.7391 8.73913H108.261C110.419 8.73913 112.174 10.4946 112.174 12.6523V32.2174Z" fill="#2B2B30"/>
</svg>
