<svg width="114" height="114" viewBox="0 0 114 114" fill="none" xmlns="http://www.w3.org/2000/svg">
<path fill-rule="evenodd" clip-rule="evenodd" d="M6.69749 82.1812C2.89124 74.6062 0.75 66.0488 0.75 57C0.75 47.9512 2.89124 39.3938 6.69749 31.8188C15.9412 13.3988 35.0063 0.75 57 0.75C78.9938 0.75 98.0588 13.3988 107.303 31.8188C111.109 39.3938 113.25 47.9512 113.25 57C113.25 66.0488 111.109 74.6062 107.303 82.1812C98.0588 100.601 78.9938 113.25 57 113.25C35.0063 113.25 15.9412 100.601 6.69749 82.1812ZM11.9475 38.3512C9.56625 44.0963 8.25 50.3963 8.25 57C8.25 63.6037 9.56625 69.9037 11.9475 75.6488C18.0713 73.275 25.29 71.37 33.2587 70.0875C32.8462 65.895 32.625 61.5112 32.625 57C32.625 52.4888 32.8462 48.105 33.2587 43.9125C25.29 42.63 18.0713 40.725 11.9475 38.3512ZM98.6287 31.635C92.4225 21.4762 82.605 13.7662 70.9687 10.2862C71.49 11.0962 71.9962 11.955 72.4837 12.8625C75.6825 18.8363 78.24 26.9963 79.7775 36.48C86.7825 35.3438 93.1612 33.69 98.6287 31.635ZM43.0313 10.2862C31.395 13.7662 21.5775 21.4762 15.3713 31.635C20.8388 33.6937 27.2175 35.3438 34.2225 36.48C35.76 26.9963 38.3175 18.8363 41.5163 12.8625C42.0038 11.955 42.51 11.0962 43.0313 10.2862ZM102.052 75.6488C104.434 69.9037 105.75 63.6037 105.75 57C105.75 50.3963 104.434 44.0963 102.052 38.3512C95.9287 40.725 88.71 42.63 80.7413 43.9125C81.1538 48.105 81.375 52.4888 81.375 57C81.375 61.5112 81.1538 65.895 80.7413 70.0875C88.71 71.37 95.9287 73.275 102.052 75.6488ZM15.3713 82.365C21.5775 92.5238 31.395 100.234 43.0313 103.714C42.51 102.904 42.0038 102.045 41.5163 101.137C38.3175 95.1637 35.76 87.0038 34.2225 77.52C27.2175 78.6562 20.8388 80.31 15.3713 82.365ZM70.9687 103.714C82.605 100.234 92.4225 92.5238 98.6287 82.365C93.1612 80.31 86.7825 78.6562 79.7775 77.52C78.24 87.0038 75.6825 95.1637 72.4837 101.137C71.9962 102.045 71.49 102.904 70.9687 103.714ZM57 8.25C55.5563 8.25 54.2062 8.93624 52.9087 10.0387C51.1687 11.5162 49.5788 13.695 48.1275 16.4063C45.2625 21.7538 43.0125 29.025 41.64 37.4663C46.5525 37.98 51.6975 38.25 57 38.25C62.3025 38.25 67.4475 37.9762 72.36 37.4663C70.9875 29.025 68.7375 21.7538 65.8725 16.4063C64.4212 13.695 62.8313 11.5162 61.0913 10.0387C59.7938 8.93624 58.4437 8.25 57 8.25ZM57 105.75C58.4437 105.75 59.7938 105.064 61.0913 103.961C62.8313 102.484 64.4212 100.305 65.8725 97.5937C68.7375 92.2462 70.9875 84.975 72.36 76.5338C67.4475 76.0238 62.3025 75.75 57 75.75C51.6975 75.75 46.5525 76.0238 41.64 76.5338C43.0125 84.975 45.2625 92.2462 48.1275 97.5937C49.5788 100.305 51.1687 102.484 52.9087 103.961C54.2062 105.064 55.5563 105.75 57 105.75ZM73.3125 69.1012C73.68 65.2237 73.875 61.17 73.875 57C73.875 52.83 73.68 48.7763 73.3125 44.8988C68.0962 45.4538 62.6287 45.75 57 45.75C51.3713 45.75 45.9038 45.4538 40.6875 44.8988C40.32 48.7763 40.125 52.83 40.125 57C40.125 61.17 40.32 65.2237 40.6875 69.1012C45.9038 68.5462 51.3713 68.25 57 68.25C62.6287 68.25 68.0962 68.5462 73.3125 69.1012Z" fill="#2B2B30"/>
</svg>
