<svg width="120" height="120" viewBox="0 0 120 120" fill="none" xmlns="http://www.w3.org/2000/svg">
<path d="M115.312 27.8128C117.901 27.8128 120 25.7144 120 23.1253V4.68749C120 2.13592 117.924 0 115.312 0H96.8745C94.2863 0 92.187 2.09838 92.187 4.68749C92.187 7.2766 94.2863 9.37498 96.8745 9.37498H103.995L92.1101 21.2603C82.7278 8.18297 67.6711 0 50.7815 0C22.7151 0 0 22.7124 0 50.7815C0 78.846 22.7124 101.563 50.7815 101.563C62.7712 101.563 74.1237 97.433 83.2222 89.8515L111.998 118.627C113.828 120.458 116.796 120.458 118.626 118.627C120.458 116.796 120.458 113.828 118.626 111.998L89.8515 83.2222C102.791 67.6949 104.775 46.6607 96.9816 29.6475L110.625 16.0043V23.1243C110.625 25.7135 112.723 27.8128 115.312 27.8128ZM50.7815 9.37498C65.2102 9.37498 77.9369 16.7953 85.3517 28.0187L59.9999 53.3706L44.8772 38.2479C43.0462 36.4178 40.079 36.4178 38.2479 38.2479L11.7874 64.7084C2.16522 37.8478 22.1759 9.37498 50.7815 9.37498ZM50.7815 92.187C36.3519 92.187 23.6261 84.7667 16.2112 73.5433L41.563 48.1914L56.6857 63.3141C58.5158 65.1451 61.484 65.1451 63.3141 63.3141L89.7746 36.8536C99.3977 63.7142 79.3871 92.187 50.7815 92.187Z" fill="#2B2B30"/>
</svg>
